<?xml version="1.0" encoding="iso-8859-1"?>
<!-- Generator: Adobe Illustrator 19.1.0, SVG Export Plug-In . SVG Version: 6.00 Build 0)  -->
<svg version="1.1" id="Capa_1" xmlns="http://www.w3.org/2000/svg" xmlns:xlink="http://www.w3.org/1999/xlink" x="0px" y="0px"
	 viewBox="0 0 123.253 123.253" style="enable-background:new 0 0 123.253 123.253;" xml:space="preserve">
<g>
	<g>
		<path fill="green" d="M61.228,122.494c-0.058,0-0.116-0.003-0.175-0.01c-7.261-0.843-12.27-3.248-14.887-7.148
			c-3.559-5.302-1.719-11.874-0.834-15.032c0.164-0.588,0.307-1.096,0.35-1.367c0.398-2.486-1.012-4.715-1.026-4.737
			c-0.025-0.039-0.052-0.085-0.073-0.126C30.185,66.342,31.735,55.388,31.808,54.936c0.44-3.383-0.367-4.422-1.816-4.989
			c-3.089-1.209-3.456-3.651-3.2-4.955c0.112-3.284,3.259-4.552,4.937-4.764c2.057-0.294,3.41-3.199,3.756-4.293
			c0.249-0.789,1.092-1.227,1.879-0.981c0.79,0.247,1.23,1.084,0.985,1.874c-0.072,0.234-1.832,5.747-6.221,6.374
			c-0.253,0.035-2.339,0.372-2.339,1.973c0,0.136-0.019,0.271-0.055,0.401c-0.053,0.263-0.049,1.029,1.352,1.577
			c4.531,1.772,3.92,6.454,3.69,8.215c-0.02,0.136-1.337,10.712,12.44,37.269c0.317,0.513,1.97,3.391,1.429,6.774
			c-0.07,0.441-0.227,0.998-0.424,1.702c-0.822,2.935-2.352,8.398,0.437,12.551c2.105,3.138,6.393,5.103,12.741,5.839
			c0.823,0.096,1.413,0.84,1.317,1.663C62.628,121.931,61.979,122.494,61.228,122.494z"/>
		<path fill="green" d="M30.757,53.26c-5.746,0-25.051-1.533-30.453-21.654c-0.534-1.697-0.716-5.585,2.536-7.725
			c0.151-0.103,3.967-2.562,8.686,1.253c0.442,0.358,0.934,0.77,1.474,1.222c4.229,3.544,11.307,9.476,21.847,11.985
			c0.806,0.192,1.304,1,1.111,1.807s-1,1.301-1.807,1.111c-11.229-2.673-18.646-8.89-23.078-12.604
			c-0.525-0.44-1.003-0.84-1.434-1.188c-3.022-2.445-5.122-1.099-5.143-1.085c-2.203,1.449-1.322,4.356-1.313,4.386
			C8.88,51.982,31.165,50.302,32.117,50.222c0.836-0.074,1.552,0.539,1.624,1.363c0.072,0.825-0.536,1.552-1.36,1.625
			C32.343,53.214,31.753,53.26,30.757,53.26z"/>
		<path fill="green" d="M32.839,35.01c-4.522,0-11.446-5.292-17.826-10.512l-0.958-0.781c-3.168-2.561-5.961-1.699-6.078-1.662
			c-0.083,0.027-0.185,0.052-0.271,0.064c-2.592,0.363-4.131,4.024-4.506,5.404c-0.216,0.798-1.038,1.271-1.838,1.057
			c-0.799-0.215-1.272-1.034-1.06-1.833c0.074-0.278,1.864-6.78,6.866-7.581c0.844-0.24,4.698-1.075,8.772,2.218l0.971,0.792
			C29.519,32.492,32.83,32.595,33.687,31.74c0.128-0.128,0.276-0.23,0.439-0.305c0.213-0.222,1.487-1.828,1.788-8.7l0.837-11.461
			c0.061-0.827,0.797-1.44,1.605-1.387c0.826,0.061,1.447,0.779,1.387,1.605L38.91,22.909c-0.354,8.101-2.074,10.516-3.342,11.172
			C34.813,34.722,33.89,35.009,32.839,35.01z"/>
		<path fill="green" d="M40.332,12.508c-0.926,0-1.849-0.221-2.669-0.64c-1.978-1.011-3.206-3.017-3.206-5.235c0-3.239,2.636-5.875,5.875-5.875
			s5.875,2.636,5.875,5.875S43.571,12.508,40.332,12.508z M40.332,3.758c-1.585,0-2.875,1.29-2.875,2.875
			c0,1.086,0.603,2.068,1.571,2.563c0.404,0.207,0.843,0.312,1.304,0.312c1.585,0,2.875-1.29,2.875-2.875S41.917,3.758,40.332,3.758
			z"/>
		<path fill="green" d="M50.301,34.521c-0.29,0-0.57-0.02-0.834-0.056c-2.444-0.031-3.839-1.054-4.312-1.479
			c-5.586-3.724-4.578-19.498-4.317-22.645c0.068-0.826,0.804-1.445,1.619-1.371c0.825,0.068,1.439,0.793,1.371,1.618
			c-0.549,6.639-0.207,17.922,3.044,19.935c0.115,0.071,0.219,0.157,0.311,0.255l0,0c0.002,0,0.739,0.687,2.4,0.687
			c0.08,0,0.159,0.006,0.238,0.019c0.526,0.075,3.234,0.298,3.783-2.936l1.169-6.354c0.396-2.127,2.329-6.145,6.81-6.145
			c0.828,0,1.5,0.671,1.5,1.5s-0.672,1.5-1.5,1.5c-3.097,0-3.831,3.547-3.86,3.698l-1.164,6.323
			C55.862,33.167,52.725,34.521,50.301,34.521z"/>
		<path fill="green" d="M38.535,71.358c-0.922,0-1.839-0.267-2.648-0.78l-0.001,0c-1.049-0.666-1.802-1.671-2.12-2.832
			c-0.333-1.213-0.157-2.448,0.495-3.476c0.652-1.028,1.692-1.714,2.931-1.932c1.189-0.209,2.418,0.043,3.468,0.709
			c1.104,0.698,1.896,1.807,2.174,3.042c0.257,1.145,0.062,2.305-0.549,3.267c-0.65,1.027-1.69,1.714-2.93,1.931
			C39.083,71.335,38.808,71.358,38.535,71.358z M37.493,68.045c0.417,0.265,0.896,0.366,1.343,0.288
			c0.396-0.069,0.721-0.276,0.914-0.582c0.232-0.367,0.213-0.749,0.155-1.005c-0.104-0.463-0.414-0.887-0.852-1.164
			c-0.418-0.265-0.893-0.369-1.343-0.288c-0.396,0.069-0.723,0.277-0.917,0.583c-0.193,0.306-0.242,0.688-0.136,1.075
			C36.779,67.392,37.075,67.78,37.493,68.045L37.493,68.045z"/>
		<path fill="green" d="M42.599,72.945c-0.039,0-0.077-0.001-0.116-0.004c-0.826-0.063-1.444-0.784-1.382-1.61
			c0.197-2.568-0.299-4.414-1.475-5.484c-1.707-1.555-4.45-1.137-4.478-1.132c-0.809,0.14-1.592-0.409-1.731-1.226
			s0.409-1.592,1.226-1.731c0.17-0.028,4.199-0.684,7.004,1.871c1.895,1.726,2.717,4.394,2.446,7.932
			C44.033,72.347,43.376,72.945,42.599,72.945z"/>
		<path fill="green" d="M53.414,112.925c-2.481,0-4.5-2.019-4.5-4.5s2.019-4.5,4.5-4.5s4.5,2.019,4.5,4.5S55.895,112.925,53.414,112.925z
			 M53.414,106.925c-0.827,0-1.5,0.673-1.5,1.5s0.673,1.5,1.5,1.5s1.5-0.673,1.5-1.5S54.241,106.925,53.414,106.925z"/>
		<path fill="green" d="M58.601,114.05c-0.828,0-1.5-0.671-1.5-1.5c0-5.294-3.641-5.618-3.796-5.629c-0.826-0.06-1.447-0.778-1.388-1.604
			c0.06-0.827,0.78-1.439,1.604-1.388c2.275,0.165,6.579,2.179,6.579,8.622C60.101,113.379,59.43,114.05,58.601,114.05z"/>
		<path fill="green" d="M62.029,122.494c-0.751,0-1.399-0.563-1.488-1.327c-0.096-0.823,0.494-1.567,1.317-1.663
			c6.349-0.737,10.636-2.702,12.741-5.839c2.788-4.153,1.259-9.616,0.437-12.551c-0.197-0.705-0.354-1.261-0.424-1.702
			c-0.541-3.383,1.111-6.261,1.429-6.774c13.777-26.556,12.46-37.132,12.445-37.236c-0.234-1.794-0.846-6.475,3.686-8.248
			c1.596-0.625,1.362-1.539,1.352-1.577c-0.036-0.131-0.055-0.266-0.055-0.401c0-1.601-2.086-1.938-2.324-1.971
			c-4.403-0.629-6.163-6.142-6.235-6.376c-0.245-0.791,0.197-1.631,0.988-1.877c0.792-0.247,1.63,0.197,1.876,0.985
			c0.346,1.095,1.699,3.999,3.78,4.296c1.654,0.208,4.8,1.477,4.912,4.761c0.256,1.304-0.112,3.746-3.2,4.955
			c-1.449,0.566-2.257,1.606-1.81,5.034c0.066,0.408,1.616,11.361-12.781,39.093c-0.023,0.045-0.049,0.089-0.077,0.132
			c-0.011,0.017-1.421,2.246-1.022,4.732c0.043,0.271,0.186,0.779,0.35,1.367c0.885,3.158,2.725,9.729-0.834,15.032
			c-2.617,3.9-7.626,6.305-14.887,7.148C62.145,122.491,62.087,122.494,62.029,122.494z"/>
		<path fill="green" d="M92.508,53.26c-1.001,0-1.593-0.046-1.631-0.05c-0.824-0.073-1.433-0.8-1.36-1.625c0.072-0.824,0.792-1.437,1.624-1.363
			c0.946,0.079,23.237,1.757,28.917-19.395c0.051-0.171,0.874-3.018-1.288-4.441c-0.208-0.127-2.252-1.264-5.15,1.081
			c-0.431,0.348-0.908,0.748-1.434,1.188c-4.432,3.714-11.85,9.931-23.078,12.604c-0.812,0.193-1.614-0.306-1.807-1.111
			c-0.192-0.806,0.306-1.615,1.111-1.807c10.54-2.51,17.617-8.441,21.847-11.985c0.54-0.453,1.031-0.864,1.474-1.222
			c4.718-3.816,8.533-1.355,8.693-1.249c3.244,2.136,3.062,6.023,2.512,7.78C117.552,51.726,98.263,53.26,92.508,53.26z"/>
		<path fill="green" d="M90.419,35.01c-1.052,0-1.975-0.287-2.73-0.928c-1.267-0.658-2.987-3.078-3.344-11.216l-0.831-11.373
			c-0.061-0.826,0.561-1.545,1.387-1.605c0.821-0.054,1.545,0.56,1.605,1.387l0.834,11.417c0.303,6.913,1.578,8.522,1.791,8.744
			c0.163,0.074,0.312,0.177,0.439,0.305c0.852,0.853,4.167,0.752,16.775-9.564l0.971-0.792c4.075-3.294,7.929-2.458,8.772-2.218
			c5.002,0.8,6.792,7.302,6.866,7.581c0.214,0.801-0.262,1.623-1.062,1.836c-0.804,0.212-1.622-0.261-1.836-1.061
			c-0.374-1.381-1.914-5.041-4.505-5.403c-0.098-0.014-0.193-0.037-0.286-0.069c-0.103-0.032-2.896-0.892-6.062,1.667l-0.958,0.781
			C101.866,29.718,94.942,35.01,90.419,35.01z"/>
		<path fill="green" d="M82.926,12.508c-3.239,0-5.875-2.636-5.875-5.875s2.636-5.875,5.875-5.875s5.875,2.636,5.875,5.875
			c0,2.219-1.229,4.225-3.206,5.235C84.774,12.287,83.851,12.508,82.926,12.508z M82.926,3.758c-1.585,0-2.875,1.29-2.875,2.875
			s1.29,2.875,2.875,2.875c0.461,0,0.899-0.105,1.304-0.312c0.969-0.495,1.571-1.478,1.571-2.563
			C85.801,5.048,84.511,3.758,82.926,3.758z"/>
		<path fill="green" d="M72.957,34.521c-2.424,0-5.562-1.356-6.26-5.47l-1.163-6.313c-0.028-0.147-0.746-3.688-3.781-3.688
			c-0.026,0-0.054,0-0.077,0c-0.819,0-1.488-0.658-1.5-1.479c-0.012-0.828,0.65-1.509,1.479-1.521c0.035,0,0.07,0,0.104,0
			c4.431,0,6.337,4.01,6.727,6.147l1.166,6.332c0.552,3.253,3.261,3.033,3.798,2.955c0.071-0.01,0.155-0.017,0.227-0.017
			c1.662,0,2.398-0.687,2.43-0.716c0.075-0.072,0.191-0.17,0.281-0.225c3.251-2.013,3.593-13.296,3.044-19.935
			c-0.068-0.825,0.546-1.55,1.371-1.618c0.806-0.073,1.55,0.545,1.619,1.371c0.261,3.147,1.269,18.921-4.317,22.645
			c-0.474,0.424-1.868,1.447-4.312,1.479C73.527,34.502,73.247,34.521,72.957,34.521z"/>
		<path fill="green" d="M84.723,71.358c-0.273,0-0.548-0.023-0.819-0.071c-1.239-0.217-2.279-0.904-2.931-1.933
			c-0.609-0.96-0.805-2.121-0.548-3.265c0.277-1.235,1.07-2.344,2.176-3.043c1.047-0.665,2.273-0.917,3.466-0.708
			c1.238,0.218,2.278,0.904,2.931,1.932c0.652,1.028,0.828,2.262,0.495,3.476c-0.318,1.161-1.071,2.167-2.12,2.832l-0.001,0
			C86.561,71.091,85.644,71.358,84.723,71.358z M85.247,65.267c-0.355,0-0.717,0.107-1.041,0.313
			c-0.439,0.278-0.75,0.702-0.854,1.165c-0.058,0.256-0.077,0.638,0.154,1.003c0.194,0.308,0.52,0.515,0.915,0.584
			c0.447,0.077,0.926-0.024,1.343-0.288l0,0c0.418-0.265,0.714-0.653,0.835-1.093c0.106-0.388,0.058-0.77-0.136-1.075
			c-0.194-0.307-0.521-0.515-0.917-0.584C85.448,65.276,85.348,65.267,85.247,65.267z"/>
		<path fill="green" d="M80.658,72.945c-0.776,0-1.434-0.598-1.494-1.385c-0.271-3.538,0.552-6.206,2.446-7.932
			c2.806-2.555,6.836-1.899,7.004-1.871c0.816,0.14,1.365,0.915,1.226,1.731c-0.14,0.814-0.908,1.362-1.726,1.227
			c-0.047-0.007-2.794-0.422-4.496,1.143c-1.167,1.073-1.658,2.914-1.462,5.473c0.062,0.826-0.556,1.547-1.382,1.61
			C80.736,72.944,80.697,72.945,80.658,72.945z"/>
		<path fill="green" d="M69.844,112.925c-2.481,0-4.5-2.019-4.5-4.5s2.019-4.5,4.5-4.5s4.5,2.019,4.5,4.5S72.325,112.925,69.844,112.925z
			 M69.844,106.925c-0.827,0-1.5,0.673-1.5,1.5s0.673,1.5,1.5,1.5s1.5-0.673,1.5-1.5S70.671,106.925,69.844,106.925z"/>
		<path fill="green" d="M64.656,114.05c-0.828,0-1.5-0.671-1.5-1.5c0-6.443,4.304-8.457,6.579-8.622c0.825-0.05,1.545,0.561,1.604,1.388
			c0.06,0.822-0.555,1.537-1.374,1.604c-0.401,0.039-3.81,0.522-3.81,5.63C66.156,113.379,65.484,114.05,64.656,114.05z"/>
	</g>
	<path fill="green" d="M57.248,94.217c-0.158,0-0.319-0.025-0.478-0.079c-0.785-0.264-1.208-1.114-0.944-1.899
		c0.035-0.15,0.073-0.724,0.086-1.314c-5.107-9.541-7.229-26.144-7.318-26.855c-0.103-0.822,0.48-1.571,1.302-1.674
		c0.823-0.102,1.572,0.48,1.675,1.302c0.021,0.171,2.193,17.158,7.158,26.127c0.123,0.223,0.188,0.473,0.188,0.727
		c0,0.714-0.032,2.006-0.246,2.644C58.459,93.821,57.875,94.217,57.248,94.217z"/>
	<path fill="green" d="M66.096,94.231c-0.632,0-1.224-0.407-1.436-1.037c-0.214-0.637-0.246-1.93-0.246-2.644c0-0.254,0.064-0.504,0.188-0.727
		c4.969-8.977,7.137-25.956,7.158-26.126c0.103-0.822,0.854-1.404,1.675-1.302c0.821,0.103,1.404,0.853,1.302,1.674
		c-0.089,0.711-2.211,17.314-7.318,26.855c0.013,0.591,0.052,1.17,0.096,1.347c0.264,0.785-0.164,1.62-0.949,1.883
		C66.409,94.206,66.251,94.231,66.096,94.231z"/>
	<circle fill="green" cx="49.664" cy="50.425" r="2.125"/>
	<circle fill="green" cx="73.289" cy="50.425" r="2.125"/>
	<circle fill="green" cx="61.664" cy="44.3" r="2.125"/>
</g>
<g>
</g>
<g>
</g>
<g>
</g>
<g>
</g>
<g>
</g>
<g>
</g>
<g>
</g>
<g>
</g>
<g>
</g>
<g>
</g>
<g>
</g>
<g>
</g>
<g>
</g>
<g>
</g>
<g>
</g>
</svg>
